<svg width="35" height="35" viewBox="0 0 35 35" fill="none" xmlns="http://www.w3.org/2000/svg">
<g id="Filled" clip-path="url(#clip0_8_2419)">
<path id="Vector" d="M26.5157 7.06766C28.8564 9.40818 30.1952 12.5673 30.2489 15.8771C30.3026 19.1868 29.0669 22.3877 26.8032 24.8029L26.5157 25.1004L20.5047 31.1099C19.742 31.8721 18.7181 32.3159 17.6405 32.3514C16.5628 32.387 15.5119 32.0115 14.7007 31.3012L14.4967 31.1099L8.48432 25.099C6.09322 22.7079 4.74991 19.4649 4.74991 16.0833C4.74991 12.7018 6.09322 9.45877 8.48432 7.06766C10.8754 4.67656 14.1185 3.33325 17.5 3.33325C20.8815 3.33325 24.1245 4.67656 26.5157 7.06766ZM17.5 11.8333C16.9419 11.8333 16.3892 11.9433 15.8736 12.1568C15.3579 12.3704 14.8894 12.6835 14.4948 13.0781C14.1001 13.4728 13.7871 13.9413 13.5735 14.4569C13.3599 14.9726 13.25 15.5252 13.25 16.0833C13.25 16.6414 13.3599 17.1941 13.5735 17.7097C13.7871 18.2254 14.1001 18.6939 14.4948 19.0885C14.8894 19.4832 15.3579 19.7962 15.8736 20.0098C16.3892 20.2234 16.9419 20.3333 17.5 20.3333C18.6272 20.3333 19.7082 19.8856 20.5052 19.0885C21.3022 18.2915 21.75 17.2105 21.75 16.0833C21.75 14.9562 21.3022 13.8752 20.5052 13.0781C19.7082 12.2811 18.6272 11.8333 17.5 11.8333Z" fill="#FF5555"/>
</g>
<defs>
<clipPath id="clip0_8_2419">
<rect width="34" height="34" fill="white" transform="translate(0.5 0.5)"/>
</clipPath>
</defs>
</svg>
